<?xml version="1.0" standalone="no"?>
<!DOCTYPE svg PUBLIC "-//W3C//DTD SVG 20010904//EN"
 "http://www.w3.org/TR/2001/REC-SVG-20010904/DTD/svg10.dtd">
<svg version="1.0" xmlns="http://www.w3.org/2000/svg"
 width="512.000000pt" height="512.000000pt" viewBox="0 0 512.000000 512.000000"
 preserveAspectRatio="xMidYMid meet">
<metadata>
Created by potrace 1.14, written by Peter Selinger 2001-2017
</metadata>
<g transform="translate(0.000000,512.000000) scale(0.100000,-0.100000)"
fill="#000000" stroke="none">
<path d="M1355 4650 c-11 -4 -30 -18 -41 -31 -17 -19 -432 -731 -539 -924 -12
-22 -157 -275 -323 -562 -165 -286 -308 -535 -316 -552 -29 -55 -21 -89 55
-222 88 -152 569 -988 734 -1274 67 -116 181 -314 255 -442 111 -193 139 -235
166 -248 29 -13 168 -15 1232 -13 l1200 3 27 25 c22 20 68 95 173 280 10 19
88 154 172 300 84 146 231 400 325 565 95 165 221 383 280 485 227 392 255
445 255 481 0 35 -15 63 -345 634 -53 94 -108 188 -120 210 -13 22 -80 139
-150 260 -137 236 -155 267 -183 318 -260 457 -380 658 -408 685 l-34 32
-1197 -1 c-659 0 -1207 -4 -1218 -9z"/>
</g>
</svg>
